{
	"patcher" : 	{
		"fileversion" : 1,
		"appversion" : 		{
			"major" : 8,
			"minor" : 6,
			"revision" : 5,
			"architecture" : "x64",
			"modernui" : 1
		}
,
		"classnamespace" : "box",
		"rect" : [ 337.0, 151.0, 687.0, 623.0 ],
		"bglocked" : 0,
		"openinpresentation" : 0,
		"default_fontsize" : 12.0,
		"default_fontface" : 0,
		"default_fontname" : "Arial",
		"gridonopen" : 1,
		"gridsize" : [ 15.0, 15.0 ],
		"gridsnaponopen" : 1,
		"objectsnaponopen" : 1,
		"statusbarvisible" : 2,
		"toolbarvisible" : 1,
		"lefttoolbarpinned" : 0,
		"toptoolbarpinned" : 0,
		"righttoolbarpinned" : 0,
		"bottomtoolbarpinned" : 0,
		"toolbars_unpinned_last_save" : 2,
		"tallnewobj" : 0,
		"boxanimatetime" : 200,
		"enablehscroll" : 1,
		"enablevscroll" : 1,
		"devicewidth" : 0.0,
		"description" : "",
		"digest" : "",
		"tags" : "",
		"style" : "",
		"subpatcher_template" : "",
		"showrootpatcherontab" : 0,
		"showontab" : 0,
		"assistshowspatchername" : 0,
		"boxes" : [ 			{
				"box" : 				{
					"id" : "obj-3",
					"maxclass" : "newobj",
					"numinlets" : 0,
					"numoutlets" : 0,
					"patcher" : 					{
						"fileversion" : 1,
						"appversion" : 						{
							"major" : 8,
							"minor" : 6,
							"revision" : 5,
							"architecture" : "x64",
							"modernui" : 1
						}
,
						"classnamespace" : "box",
						"rect" : [ 337.0, 177.0, 687.0, 597.0 ],
						"bglocked" : 0,
						"openinpresentation" : 0,
						"default_fontsize" : 12.0,
						"default_fontface" : 0,
						"default_fontname" : "Arial",
						"gridonopen" : 1,
						"gridsize" : [ 15.0, 15.0 ],
						"gridsnaponopen" : 1,
						"objectsnaponopen" : 1,
						"statusbarvisible" : 2,
						"toolbarvisible" : 1,
						"lefttoolbarpinned" : 0,
						"toptoolbarpinned" : 0,
						"righttoolbarpinned" : 0,
						"bottomtoolbarpinned" : 0,
						"toolbars_unpinned_last_save" : 0,
						"tallnewobj" : 0,
						"boxanimatetime" : 200,
						"enablehscroll" : 1,
						"enablevscroll" : 1,
						"devicewidth" : 0.0,
						"description" : "",
						"digest" : "",
						"tags" : "",
						"style" : "",
						"subpatcher_template" : "",
						"showontab" : 1,
						"assistshowspatchername" : 0,
						"boxes" : [ 							{
								"box" : 								{
									"bubble" : 1,
									"bubbleside" : 2,
									"id" : "obj-33",
									"linecount" : 2,
									"maxclass" : "comment",
									"numinlets" : 1,
									"numoutlets" : 0,
									"patching_rect" : [ 459.5, 197.0, 180.0, 52.0 ],
									"text" : "@chans fixes number of output channels"
								}

							}
, 							{
								"box" : 								{
									"fontface" : 0,
									"fontname" : "Arial",
									"fontsize" : 12.0,
									"id" : "obj-31",
									"maxclass" : "mc.number~",
									"mode" : 2,
									"numinlets" : 2,
									"numoutlets" : 3,
									"outlettype" : [ "multichannelsignal", "float", "int" ],
									"patching_rect" : [ 602.0, 314.0, 56.0, 34.0 ],
									"sig" : 0.0
								}

							}
, 							{
								"box" : 								{
									"fontface" : 0,
									"fontname" : "Arial",
									"fontsize" : 12.0,
									"id" : "obj-32",
									"maxclass" : "mc.number~",
									"mode" : 2,
									"numinlets" : 2,
									"numoutlets" : 3,
									"outlettype" : [ "multichannelsignal", "float", "int" ],
									"patching_rect" : [ 439.0, 314.0, 56.0, 34.0 ],
									"sig" : 0.0
								}

							}
, 							{
								"box" : 								{
									"fontface" : 0,
									"fontname" : "Arial",
									"fontsize" : 12.0,
									"id" : "obj-30",
									"maxclass" : "mc.number~",
									"mode" : 2,
									"numinlets" : 2,
									"numoutlets" : 3,
									"outlettype" : [ "multichannelsignal", "float", "int" ],
									"patching_rect" : [ 196.0, 314.0, 56.0, 34.0 ],
									"sig" : 0.0
								}

							}
, 							{
								"box" : 								{
									"fontface" : 0,
									"fontname" : "Arial",
									"fontsize" : 12.0,
									"id" : "obj-29",
									"maxclass" : "mc.number~",
									"mode" : 2,
									"numinlets" : 2,
									"numoutlets" : 3,
									"outlettype" : [ "multichannelsignal", "float", "int" ],
									"patching_rect" : [ 53.0, 314.0, 56.0, 34.0 ],
									"sig" : 0.0
								}

							}
, 							{
								"box" : 								{
									"id" : "obj-24",
									"maxclass" : "newobj",
									"numinlets" : 2,
									"numoutlets" : 2,
									"outlettype" : [ "multichannelsignal", "multichannelsignal" ],
									"patching_rect" : [ 439.0, 280.0, 219.0, 22.0 ],
									"text" : "mcs.nn~ demo_mc identity 2 @chans 8"
								}

							}
, 							{
								"box" : 								{
									"bubble" : 1,
									"bubbleside" : 2,
									"id" : "obj-23",
									"linecount" : 2,
									"maxclass" : "comment",
									"numinlets" : 1,
									"numoutlets" : 0,
									"patching_rect" : [ 439.0, 383.0, 178.0, 52.0 ],
									"text" : "batch function of demo_mc outputs the channel index"
								}

							}
, 							{
								"box" : 								{
									"bubble" : 1,
									"bubbleside" : 2,
									"id" : "obj-22",
									"linecount" : 2,
									"maxclass" : "comment",
									"numinlets" : 1,
									"numoutlets" : 0,
									"patching_rect" : [ 53.0, 383.0, 178.0, 52.0 ],
									"text" : "batch function of demo_mc outputs the batch index"
								}

							}
, 							{
								"box" : 								{
									"fontface" : 0,
									"fontname" : "Arial",
									"fontsize" : 12.0,
									"id" : "obj-21",
									"maxclass" : "mc.number~",
									"mode" : 2,
									"numinlets" : 2,
									"numoutlets" : 3,
									"outlettype" : [ "multichannelsignal", "float", "int" ],
									"patching_rect" : [ 585.0, 481.0, 56.0, 34.0 ],
									"sig" : 0.0
								}

							}
, 							{
								"box" : 								{
									"fontface" : 0,
									"fontname" : "Arial",
									"fontsize" : 12.0,
									"id" : "obj-20",
									"maxclass" : "mc.number~",
									"mode" : 2,
									"numinlets" : 2,
									"numoutlets" : 3,
									"outlettype" : [ "multichannelsignal", "float", "int" ],
									"patching_rect" : [ 513.0, 481.0, 56.0, 34.0 ],
									"sig" : 0.0
								}

							}
, 							{
								"box" : 								{
									"fontface" : 0,
									"fontname" : "Arial",
									"fontsize" : 12.0,
									"id" : "obj-19",
									"maxclass" : "mc.number~",
									"mode" : 2,
									"numinlets" : 2,
									"numoutlets" : 3,
									"outlettype" : [ "multichannelsignal", "float", "int" ],
									"patching_rect" : [ 439.0, 481.0, 56.0, 34.0 ],
									"sig" : 0.0
								}

							}
, 							{
								"box" : 								{
									"fontface" : 0,
									"fontname" : "Arial",
									"fontsize" : 12.0,
									"id" : "obj-17",
									"maxclass" : "mc.number~",
									"mode" : 2,
									"numinlets" : 2,
									"numoutlets" : 3,
									"outlettype" : [ "multichannelsignal", "float", "int" ],
									"patching_rect" : [ 187.0, 481.0, 56.0, 34.0 ],
									"sig" : 0.0
								}

							}
, 							{
								"box" : 								{
									"fontface" : 0,
									"fontname" : "Arial",
									"fontsize" : 12.0,
									"id" : "obj-16",
									"maxclass" : "mc.number~",
									"mode" : 2,
									"numinlets" : 2,
									"numoutlets" : 3,
									"outlettype" : [ "multichannelsignal", "float", "int" ],
									"patching_rect" : [ 122.0, 481.0, 56.0, 34.0 ],
									"sig" : 0.0
								}

							}
, 							{
								"box" : 								{
									"fontface" : 0,
									"fontname" : "Arial",
									"fontsize" : 12.0,
									"id" : "obj-15",
									"maxclass" : "mc.number~",
									"mode" : 2,
									"numinlets" : 2,
									"numoutlets" : 3,
									"outlettype" : [ "multichannelsignal", "float", "int" ],
									"patching_rect" : [ 53.0, 481.0, 56.0, 34.0 ],
									"sig" : 0.0
								}

							}
, 							{
								"box" : 								{
									"id" : "obj-12",
									"maxclass" : "newobj",
									"numinlets" : 3,
									"numoutlets" : 3,
									"outlettype" : [ "multichannelsignal", "multichannelsignal", "multichannelsignal" ],
									"patching_rect" : [ 439.0, 437.0, 166.0, 22.0 ],
									"text" : "mcs.nn~ demo_mc channel 3"
								}

							}
, 							{
								"box" : 								{
									"id" : "obj-1",
									"maxclass" : "newobj",
									"numinlets" : 3,
									"numoutlets" : 3,
									"outlettype" : [ "multichannelsignal", "multichannelsignal", "multichannelsignal" ],
									"patching_rect" : [ 53.0, 437.0, 153.0, 22.0 ],
									"text" : "mcs.nn~ demo_mc batch 3"
								}

							}
, 							{
								"box" : 								{
									"id" : "obj-8",
									"maxclass" : "newobj",
									"numinlets" : 1,
									"numoutlets" : 1,
									"outlettype" : [ "" ],
									"patching_rect" : [ 196.0, 169.0, 60.0, 22.0 ],
									"text" : "loadmess"
								}

							}
, 							{
								"box" : 								{
									"id" : "obj-7",
									"maxclass" : "newobj",
									"numinlets" : 1,
									"numoutlets" : 1,
									"outlettype" : [ "" ],
									"patching_rect" : [ 54.0, 170.0, 60.0, 22.0 ],
									"text" : "loadmess"
								}

							}
, 							{
								"box" : 								{
									"id" : "obj-9",
									"maxclass" : "message",
									"numinlets" : 2,
									"numoutlets" : 1,
									"outlettype" : [ "" ],
									"patching_rect" : [ 196.0, 198.0, 35.0, 22.0 ],
									"text" : "4 5 6"
								}

							}
, 							{
								"box" : 								{
									"id" : "obj-5",
									"maxclass" : "newobj",
									"numinlets" : 3,
									"numoutlets" : 1,
									"outlettype" : [ "multichannelsignal" ],
									"patching_rect" : [ 196.0, 226.0, 114.0, 22.0 ],
									"text" : "mcs.sig~ @chans 3"
								}

							}
, 							{
								"box" : 								{
									"id" : "obj-4",
									"maxclass" : "message",
									"numinlets" : 2,
									"numoutlets" : 1,
									"outlettype" : [ "" ],
									"patching_rect" : [ 54.0, 197.0, 35.0, 22.0 ],
									"text" : "1 2 3"
								}

							}
, 							{
								"box" : 								{
									"id" : "obj-2",
									"maxclass" : "newobj",
									"numinlets" : 3,
									"numoutlets" : 1,
									"outlettype" : [ "multichannelsignal" ],
									"patching_rect" : [ 54.0, 226.0, 114.0, 22.0 ],
									"text" : "mcs.sig~ @chans 3"
								}

							}
, 							{
								"box" : 								{
									"id" : "obj-6",
									"maxclass" : "newobj",
									"numinlets" : 2,
									"numoutlets" : 2,
									"outlettype" : [ "multichannelsignal", "multichannelsignal" ],
									"patching_rect" : [ 53.0, 280.0, 162.0, 22.0 ],
									"text" : "mcs.nn~ demo_mc identity 2"
								}

							}
, 							{
								"box" : 								{
									"fontsize" : 12.0,
									"id" : "obj-13",
									"maxclass" : "comment",
									"numinlets" : 1,
									"numoutlets" : 0,
									"patching_rect" : [ 14.0, 81.0, 528.0, 20.0 ],
									"text" : "ACIDS - IRCAM : Antoine Caillon, Axel Chemla--Romeu Santos, Nils Demerlé, Philippe Esling"
								}

							}
, 							{
								"box" : 								{
									"fontsize" : 18.0,
									"id" : "obj-37",
									"maxclass" : "comment",
									"numinlets" : 1,
									"numoutlets" : 0,
									"patching_rect" : [ 213.0, 14.0, 455.0, 27.0 ],
									"text" : "Multichannel audio generation"
								}

							}
, 							{
								"box" : 								{
									"fontsize" : 48.0,
									"id" : "obj-40",
									"maxclass" : "newobj",
									"numinlets" : 1,
									"numoutlets" : 0,
									"patching_rect" : [ 14.0, 14.0, 191.0, 62.0 ],
									"text" : "mcs.nn~"
								}

							}
, 							{
								"box" : 								{
									"id" : "obj-3",
									"linecount" : 2,
									"maxclass" : "comment",
									"numinlets" : 1,
									"numoutlets" : 0,
									"patching_rect" : [ 214.0, 40.0, 453.0, 33.0 ],
									"text" : "This variant allows to group the inputs/outputs of the objects inside a single connection per input (eg. here all encoded latents of one input)"
								}

							}
, 							{
								"box" : 								{
									"fontface" : 1,
									"id" : "obj-26",
									"maxclass" : "comment",
									"numinlets" : 1,
									"numoutlets" : 0,
									"patching_rect" : [ 53.0, 111.0, 141.0, 20.0 ],
									"text" : "Wraps inputs/output"
								}

							}
, 							{
								"box" : 								{
									"id" : "obj-25",
									"maxclass" : "mc.ezdac~",
									"numinlets" : 1,
									"numoutlets" : 0,
									"patching_rect" : [ 29.0, 535.0, 45.0, 45.0 ]
								}

							}
, 							{
								"box" : 								{
									"id" : "obj-18",
									"linecount" : 2,
									"maxclass" : "comment",
									"numinlets" : 1,
									"numoutlets" : 0,
									"patching_rect" : [ 53.0, 130.0, 321.0, 33.0 ],
									"text" : "Batches inputs among inlets, which allows to process several inputs in parallel with the same model."
								}

							}
 ],
						"lines" : [ 							{
								"patchline" : 								{
									"destination" : [ "obj-15", 0 ],
									"source" : [ "obj-1", 0 ]
								}

							}
, 							{
								"patchline" : 								{
									"destination" : [ "obj-16", 0 ],
									"source" : [ "obj-1", 1 ]
								}

							}
, 							{
								"patchline" : 								{
									"destination" : [ "obj-17", 0 ],
									"source" : [ "obj-1", 2 ]
								}

							}
, 							{
								"patchline" : 								{
									"destination" : [ "obj-19", 0 ],
									"source" : [ "obj-12", 0 ]
								}

							}
, 							{
								"patchline" : 								{
									"destination" : [ "obj-20", 0 ],
									"source" : [ "obj-12", 1 ]
								}

							}
, 							{
								"patchline" : 								{
									"destination" : [ "obj-21", 0 ],
									"source" : [ "obj-12", 2 ]
								}

							}
, 							{
								"patchline" : 								{
									"destination" : [ "obj-24", 0 ],
									"midpoints" : [ 63.5, 267.0, 448.5, 267.0 ],
									"order" : 0,
									"source" : [ "obj-2", 0 ]
								}

							}
, 							{
								"patchline" : 								{
									"destination" : [ "obj-6", 0 ],
									"midpoints" : [ 63.5, 276.0, 62.5, 276.0 ],
									"order" : 1,
									"source" : [ "obj-2", 0 ]
								}

							}
, 							{
								"patchline" : 								{
									"destination" : [ "obj-31", 0 ],
									"source" : [ "obj-24", 1 ]
								}

							}
, 							{
								"patchline" : 								{
									"destination" : [ "obj-32", 0 ],
									"source" : [ "obj-24", 0 ]
								}

							}
, 							{
								"patchline" : 								{
									"destination" : [ "obj-2", 0 ],
									"source" : [ "obj-4", 0 ]
								}

							}
, 							{
								"patchline" : 								{
									"destination" : [ "obj-24", 1 ],
									"midpoints" : [ 205.5, 267.0, 648.5, 267.0 ],
									"order" : 0,
									"source" : [ "obj-5", 0 ]
								}

							}
, 							{
								"patchline" : 								{
									"destination" : [ "obj-6", 1 ],
									"midpoints" : [ 205.5, 249.0, 205.5, 249.0 ],
									"order" : 1,
									"source" : [ "obj-5", 0 ]
								}

							}
, 							{
								"patchline" : 								{
									"destination" : [ "obj-29", 0 ],
									"source" : [ "obj-6", 0 ]
								}

							}
, 							{
								"patchline" : 								{
									"destination" : [ "obj-30", 0 ],
									"source" : [ "obj-6", 1 ]
								}

							}
, 							{
								"patchline" : 								{
									"destination" : [ "obj-4", 0 ],
									"source" : [ "obj-7", 0 ]
								}

							}
, 							{
								"patchline" : 								{
									"destination" : [ "obj-9", 0 ],
									"source" : [ "obj-8", 0 ]
								}

							}
, 							{
								"patchline" : 								{
									"destination" : [ "obj-5", 0 ],
									"source" : [ "obj-9", 0 ]
								}

							}
 ]
					}
,
					"patching_rect" : [ 160.0, 106.0, 77.0, 22.0 ],
					"saved_object_attributes" : 					{
						"description" : "",
						"digest" : "",
						"globalpatchername" : "",
						"tags" : ""
					}
,
					"text" : "p description"
				}

			}
, 			{
				"box" : 				{
					"id" : "obj-2",
					"maxclass" : "newobj",
					"numinlets" : 0,
					"numoutlets" : 0,
					"patcher" : 					{
						"fileversion" : 1,
						"appversion" : 						{
							"major" : 8,
							"minor" : 6,
							"revision" : 5,
							"architecture" : "x64",
							"modernui" : 1
						}
,
						"classnamespace" : "box",
						"rect" : [ 0.0, 26.0, 687.0, 597.0 ],
						"bglocked" : 0,
						"openinpresentation" : 0,
						"default_fontsize" : 12.0,
						"default_fontface" : 0,
						"default_fontname" : "Arial",
						"gridonopen" : 1,
						"gridsize" : [ 15.0, 15.0 ],
						"gridsnaponopen" : 1,
						"objectsnaponopen" : 1,
						"statusbarvisible" : 2,
						"toolbarvisible" : 1,
						"lefttoolbarpinned" : 0,
						"toptoolbarpinned" : 0,
						"righttoolbarpinned" : 0,
						"bottomtoolbarpinned" : 0,
						"toolbars_unpinned_last_save" : 0,
						"tallnewobj" : 0,
						"boxanimatetime" : 200,
						"enablehscroll" : 1,
						"enablevscroll" : 1,
						"devicewidth" : 0.0,
						"description" : "",
						"digest" : "",
						"tags" : "",
						"style" : "",
						"subpatcher_template" : "",
						"showontab" : 1,
						"assistshowspatchername" : 0,
						"boxes" : [ 							{
								"box" : 								{
									"id" : "obj-16",
									"maxclass" : "message",
									"numinlets" : 2,
									"numoutlets" : 1,
									"outlettype" : [ "" ],
									"patching_rect" : [ 59.0, 103.0, 140.0, 22.0 ],
									"text" : "download ircam/rave/isis"
								}

							}
, 							{
								"box" : 								{
									"id" : "obj-15",
									"maxclass" : "message",
									"numinlets" : 2,
									"numoutlets" : 1,
									"outlettype" : [ "" ],
									"patching_rect" : [ 124.0, 184.0, 92.0, 22.0 ],
									"text" : "method forward"
								}

							}
, 							{
								"box" : 								{
									"fontsize" : 18.0,
									"id" : "obj-37",
									"maxclass" : "comment",
									"numinlets" : 1,
									"numoutlets" : 0,
									"patching_rect" : [ 213.0, 14.0, 455.0, 27.0 ],
									"text" : "Empty mode"
								}

							}
, 							{
								"box" : 								{
									"fontsize" : 48.0,
									"id" : "obj-40",
									"maxclass" : "newobj",
									"numinlets" : 1,
									"numoutlets" : 0,
									"patching_rect" : [ 14.0, 14.0, 191.0, 62.0 ],
									"text" : "mcs.nn~"
								}

							}
, 							{
								"box" : 								{
									"id" : "obj-14",
									"linecount" : 2,
									"maxclass" : "comment",
									"numinlets" : 1,
									"numoutlets" : 0,
									"patching_rect" : [ 214.0, 40.0, 453.0, 33.0 ],
									"text" : "mcs is very convenient to make \"shells\", that can adapt itself to several models / methods that can be changed on the way."
								}

							}
, 							{
								"box" : 								{
									"displaychan" : 8,
									"id" : "obj-13",
									"maxclass" : "scope~",
									"numinlets" : 2,
									"numoutlets" : 0,
									"patching_rect" : [ 504.0, 343.0, 130.0, 130.0 ]
								}

							}
, 							{
								"box" : 								{
									"displaychan" : 7,
									"id" : "obj-12",
									"maxclass" : "scope~",
									"numinlets" : 2,
									"numoutlets" : 0,
									"patching_rect" : [ 356.0, 343.0, 130.0, 130.0 ]
								}

							}
, 							{
								"box" : 								{
									"displaychan" : 8,
									"id" : "obj-11",
									"maxclass" : "scope~",
									"numinlets" : 2,
									"numoutlets" : 0,
									"patching_rect" : [ 207.0, 343.0, 130.0, 130.0 ]
								}

							}
, 							{
								"box" : 								{
									"id" : "obj-10",
									"maxclass" : "scope~",
									"numinlets" : 2,
									"numoutlets" : 0,
									"patching_rect" : [ 59.0, 343.0, 130.0, 130.0 ]
								}

							}
, 							{
								"box" : 								{
									"id" : "obj-9",
									"maxclass" : "message",
									"numinlets" : 2,
									"numoutlets" : 1,
									"outlettype" : [ "" ],
									"patching_rect" : [ 329.5, 184.0, 91.0, 22.0 ],
									"text" : "method decode"
								}

							}
, 							{
								"box" : 								{
									"id" : "obj-8",
									"maxclass" : "message",
									"numinlets" : 2,
									"numoutlets" : 1,
									"outlettype" : [ "" ],
									"patching_rect" : [ 226.5, 184.0, 91.0, 22.0 ],
									"text" : "method encode"
								}

							}
, 							{
								"box" : 								{
									"id" : "obj-7",
									"maxclass" : "newobj",
									"numinlets" : 1,
									"numoutlets" : 5,
									"outlettype" : [ "multichannelsignal", "multichannelsignal", "multichannelsignal", "multichannelsignal", "multichannelsignal" ],
									"patching_rect" : [ 427.0, 224.0, 122.0, 22.0 ],
									"text" : "mc.separate~ 8 8 8 8"
								}

							}
, 							{
								"box" : 								{
									"id" : "obj-4",
									"maxclass" : "newobj",
									"numinlets" : 1,
									"numoutlets" : 1,
									"outlettype" : [ "multichannelsignal" ],
									"patching_rect" : [ 427.0, 190.0, 128.0, 22.0 ],
									"text" : "mc.noise~ @chans 32"
								}

							}
, 							{
								"box" : 								{
									"id" : "obj-3",
									"maxclass" : "message",
									"numinlets" : 2,
									"numoutlets" : 1,
									"outlettype" : [ "" ],
									"patching_rect" : [ 92.0, 137.0, 52.0, 22.0 ],
									"text" : "load isis"
								}

							}
, 							{
								"box" : 								{
									"id" : "obj-1",
									"maxclass" : "newobj",
									"numinlets" : 4,
									"numoutlets" : 4,
									"outlettype" : [ "multichannelsignal", "multichannelsignal", "multichannelsignal", "multichannelsignal" ],
									"patching_rect" : [ 59.0, 303.0, 464.0, 22.0 ],
									"text" : "mcs.nn~ void 4 @chans 8"
								}

							}
 ],
						"lines" : [ 							{
								"patchline" : 								{
									"destination" : [ "obj-10", 0 ],
									"source" : [ "obj-1", 0 ]
								}

							}
, 							{
								"patchline" : 								{
									"destination" : [ "obj-11", 0 ],
									"source" : [ "obj-1", 1 ]
								}

							}
, 							{
								"patchline" : 								{
									"destination" : [ "obj-12", 0 ],
									"source" : [ "obj-1", 2 ]
								}

							}
, 							{
								"patchline" : 								{
									"destination" : [ "obj-13", 0 ],
									"source" : [ "obj-1", 3 ]
								}

							}
, 							{
								"patchline" : 								{
									"destination" : [ "obj-1", 0 ],
									"source" : [ "obj-15", 0 ]
								}

							}
, 							{
								"patchline" : 								{
									"destination" : [ "obj-1", 0 ],
									"source" : [ "obj-16", 0 ]
								}

							}
, 							{
								"patchline" : 								{
									"destination" : [ "obj-1", 0 ],
									"source" : [ "obj-3", 0 ]
								}

							}
, 							{
								"patchline" : 								{
									"destination" : [ "obj-7", 0 ],
									"source" : [ "obj-4", 0 ]
								}

							}
, 							{
								"patchline" : 								{
									"destination" : [ "obj-1", 3 ],
									"midpoints" : [ 513.75, 249.0, 513.5, 249.0 ],
									"source" : [ "obj-7", 3 ]
								}

							}
, 							{
								"patchline" : 								{
									"destination" : [ "obj-1", 2 ],
									"midpoints" : [ 488.0, 288.0, 365.166666666666686, 288.0 ],
									"source" : [ "obj-7", 2 ]
								}

							}
, 							{
								"patchline" : 								{
									"destination" : [ "obj-1", 1 ],
									"midpoints" : [ 462.25, 288.0, 216.833333333333343, 288.0 ],
									"source" : [ "obj-7", 1 ]
								}

							}
, 							{
								"patchline" : 								{
									"destination" : [ "obj-1", 0 ],
									"midpoints" : [ 436.5, 288.0, 68.5, 288.0 ],
									"source" : [ "obj-7", 0 ]
								}

							}
, 							{
								"patchline" : 								{
									"destination" : [ "obj-1", 0 ],
									"source" : [ "obj-8", 0 ]
								}

							}
, 							{
								"patchline" : 								{
									"destination" : [ "obj-1", 0 ],
									"source" : [ "obj-9", 0 ]
								}

							}
 ]
					}
,
					"patching_rect" : [ 456.0, 104.0, 93.0, 22.0 ],
					"saved_object_attributes" : 					{
						"description" : "",
						"digest" : "",
						"globalpatchername" : "",
						"tags" : ""
					}
,
					"text" : "p \"empty mode\""
				}

			}
, 			{
				"box" : 				{
					"id" : "obj-1",
					"maxclass" : "newobj",
					"numinlets" : 0,
					"numoutlets" : 0,
					"patcher" : 					{
						"fileversion" : 1,
						"appversion" : 						{
							"major" : 8,
							"minor" : 6,
							"revision" : 5,
							"architecture" : "x64",
							"modernui" : 1
						}
,
						"classnamespace" : "box",
						"rect" : [ 0.0, 26.0, 687.0, 597.0 ],
						"bglocked" : 0,
						"openinpresentation" : 0,
						"default_fontsize" : 12.0,
						"default_fontface" : 0,
						"default_fontname" : "Arial",
						"gridonopen" : 1,
						"gridsize" : [ 15.0, 15.0 ],
						"gridsnaponopen" : 1,
						"objectsnaponopen" : 1,
						"statusbarvisible" : 2,
						"toolbarvisible" : 1,
						"lefttoolbarpinned" : 0,
						"toptoolbarpinned" : 0,
						"righttoolbarpinned" : 0,
						"bottomtoolbarpinned" : 0,
						"toolbars_unpinned_last_save" : 0,
						"tallnewobj" : 0,
						"boxanimatetime" : 200,
						"enablehscroll" : 1,
						"enablevscroll" : 1,
						"devicewidth" : 0.0,
						"description" : "",
						"digest" : "",
						"tags" : "",
						"style" : "",
						"subpatcher_template" : "",
						"showontab" : 1,
						"assistshowspatchername" : 0,
						"boxes" : [ 							{
								"box" : 								{
									"id" : "obj-10",
									"maxclass" : "live.dial",
									"numinlets" : 1,
									"numoutlets" : 2,
									"outlettype" : [ "", "float" ],
									"parameter_enable" : 1,
									"patching_rect" : [ 401.0, 204.0, 41.0, 48.0 ],
									"saved_attribute_attributes" : 									{
										"valueof" : 										{
											"parameter_longname" : "live.dial",
											"parameter_mmax" : 0.1,
											"parameter_modmode" : 3,
											"parameter_shortname" : "live.dial",
											"parameter_type" : 0,
											"parameter_unitstyle" : 1
										}

									}
,
									"varname" : "live.dial"
								}

							}
, 							{
								"box" : 								{
									"id" : "obj-8",
									"maxclass" : "newobj",
									"numinlets" : 1,
									"numoutlets" : 3,
									"outlettype" : [ "multichannelsignal", "multichannelsignal", "multichannelsignal" ],
									"patching_rect" : [ 336.0, 289.0, 102.0, 22.0 ],
									"text" : "mc.separate~ 8 8"
								}

							}
, 							{
								"box" : 								{
									"id" : "obj-7",
									"maxclass" : "newobj",
									"numinlets" : 2,
									"numoutlets" : 1,
									"outlettype" : [ "multichannelsignal" ],
									"patching_rect" : [ 336.0, 260.0, 84.0, 22.0 ],
									"text" : "mc.*~ 0."
								}

							}
, 							{
								"box" : 								{
									"id" : "obj-5",
									"maxclass" : "newobj",
									"numinlets" : 1,
									"numoutlets" : 1,
									"outlettype" : [ "multichannelsignal" ],
									"patching_rect" : [ 336.0, 172.0, 128.0, 22.0 ],
									"text" : "mc.noise~ @chans 24"
								}

							}
, 							{
								"box" : 								{
									"id" : "obj-2",
									"maxclass" : "newobj",
									"numinlets" : 2,
									"numoutlets" : 1,
									"outlettype" : [ "multichannelsignal" ],
									"patching_rect" : [ 153.0, 343.0, 55.0, 22.0 ],
									"text" : "mc.+~ 0."
								}

							}
, 							{
								"box" : 								{
									"id" : "obj-1",
									"maxclass" : "newobj",
									"numinlets" : 2,
									"numoutlets" : 1,
									"outlettype" : [ "multichannelsignal" ],
									"patching_rect" : [ 30.0, 343.0, 55.0, 22.0 ],
									"text" : "mc.+~ 0."
								}

							}
, 							{
								"box" : 								{
									"bubble" : 1,
									"bubbleside" : 0,
									"id" : "obj-6",
									"linecount" : 4,
									"maxclass" : "comment",
									"numinlets" : 1,
									"numoutlets" : 0,
									"patching_rect" : [ 247.0, 343.0, 184.0, 79.0 ],
									"text" : "As noise is added to copies of the input, it generates slightly different version, increasing the stereo width of the signal.",
									"textjustification" : 1
								}

							}
, 							{
								"box" : 								{
									"fontsize" : 18.0,
									"id" : "obj-37",
									"maxclass" : "comment",
									"numinlets" : 1,
									"numoutlets" : 0,
									"patching_rect" : [ 213.0, 14.0, 455.0, 27.0 ],
									"text" : "Multichannel audio generation"
								}

							}
, 							{
								"box" : 								{
									"fontsize" : 48.0,
									"id" : "obj-40",
									"maxclass" : "newobj",
									"numinlets" : 1,
									"numoutlets" : 0,
									"patching_rect" : [ 14.0, 14.0, 191.0, 62.0 ],
									"text" : "mcs.nn~"
								}

							}
, 							{
								"box" : 								{
									"id" : "obj-3",
									"linecount" : 2,
									"maxclass" : "comment",
									"numinlets" : 1,
									"numoutlets" : 0,
									"patching_rect" : [ 214.0, 40.0, 453.0, 33.0 ],
									"text" : "A good use case of mcs.nn~ is when you want to apply an operation across all the latents at once. For instance here, we add latent noise to increase the stereo width."
								}

							}
, 							{
								"box" : 								{
									"hidden" : 1,
									"id" : "obj-27",
									"maxclass" : "newobj",
									"numinlets" : 1,
									"numoutlets" : 1,
									"outlettype" : [ "" ],
									"patching_rect" : [ 193.0, 148.0, 70.0, 22.0 ],
									"text" : "loadmess 0"
								}

							}
, 							{
								"box" : 								{
									"attr" : "enable",
									"id" : "obj-28",
									"maxclass" : "attrui",
									"numinlets" : 1,
									"numoutlets" : 1,
									"outlettype" : [ "" ],
									"parameter_enable" : 0,
									"patching_rect" : [ 193.0, 172.0, 128.0, 22.0 ]
								}

							}
, 							{
								"box" : 								{
									"fontface" : 1,
									"id" : "obj-26",
									"maxclass" : "comment",
									"numinlets" : 1,
									"numoutlets" : 0,
									"patching_rect" : [ 30.0, 89.0, 141.0, 20.0 ],
									"text" : "Wraps inputs/output"
								}

							}
, 							{
								"box" : 								{
									"id" : "obj-25",
									"maxclass" : "mc.ezdac~",
									"numinlets" : 1,
									"numoutlets" : 0,
									"patching_rect" : [ 30.0, 469.0, 45.0, 45.0 ]
								}

							}
, 							{
								"box" : 								{
									"id" : "obj-24",
									"maxclass" : "newobj",
									"numinlets" : 2,
									"numoutlets" : 2,
									"outlettype" : [ "multichannelsignal", "multichannelsignal" ],
									"patching_rect" : [ 30.0, 389.0, 142.0, 22.0 ],
									"text" : "mcs.nn~ wheel decode 2"
								}

							}
, 							{
								"box" : 								{
									"basictuning" : 440,
									"data" : 									{
										"clips" : [ 											{
												"absolutepath" : "drumLoop.aif",
												"filename" : "drumLoop.aif",
												"filekind" : "audiofile",
												"id" : "u689009351",
												"loop" : 1,
												"content_state" : 												{
													"loop" : 1
												}

											}
 ]
									}
,
									"followglobaltempo" : 0,
									"formantcorrection" : 0,
									"id" : "obj-23",
									"maxclass" : "playlist~",
									"mode" : "basic",
									"numinlets" : 1,
									"numoutlets" : 5,
									"originallength" : [ 0.0, "ticks" ],
									"originaltempo" : 120.0,
									"outlettype" : [ "signal", "signal", "signal", "", "dictionary" ],
									"parameter_enable" : 0,
									"patching_rect" : [ 30.0, 168.0, 150.0, 30.0 ],
									"pitchcorrection" : 0,
									"quality" : "basic",
									"timestretch" : [ 0 ]
								}

							}
, 							{
								"box" : 								{
									"id" : "obj-20",
									"maxclass" : "newobj",
									"numinlets" : 2,
									"numoutlets" : 2,
									"outlettype" : [ "multichannelsignal", "multichannelsignal" ],
									"patching_rect" : [ 30.0, 256.0, 142.0, 22.0 ],
									"text" : "mcs.nn~ wheel encode 2"
								}

							}
, 							{
								"box" : 								{
									"id" : "obj-18",
									"linecount" : 2,
									"maxclass" : "comment",
									"numinlets" : 1,
									"numoutlets" : 0,
									"patching_rect" : [ 30.0, 114.0, 321.0, 33.0 ],
									"text" : "Batches inputs among inlets, which allows to process several inputs in parallel with the same model."
								}

							}
 ],
						"lines" : [ 							{
								"patchline" : 								{
									"destination" : [ "obj-24", 0 ],
									"source" : [ "obj-1", 0 ]
								}

							}
, 							{
								"patchline" : 								{
									"destination" : [ "obj-7", 1 ],
									"source" : [ "obj-10", 0 ]
								}

							}
, 							{
								"patchline" : 								{
									"destination" : [ "obj-24", 1 ],
									"source" : [ "obj-2", 0 ]
								}

							}
, 							{
								"patchline" : 								{
									"destination" : [ "obj-1", 0 ],
									"source" : [ "obj-20", 0 ]
								}

							}
, 							{
								"patchline" : 								{
									"destination" : [ "obj-2", 0 ],
									"source" : [ "obj-20", 1 ]
								}

							}
, 							{
								"patchline" : 								{
									"destination" : [ "obj-20", 1 ],
									"order" : 0,
									"source" : [ "obj-23", 0 ]
								}

							}
, 							{
								"patchline" : 								{
									"destination" : [ "obj-20", 0 ],
									"order" : 1,
									"source" : [ "obj-23", 0 ]
								}

							}
, 							{
								"patchline" : 								{
									"destination" : [ "obj-25", 0 ],
									"source" : [ "obj-24", 0 ]
								}

							}
, 							{
								"patchline" : 								{
									"destination" : [ "obj-28", 0 ],
									"hidden" : 1,
									"midpoints" : [ 202.5, 172.0, 202.5, 172.0 ],
									"source" : [ "obj-27", 0 ]
								}

							}
, 							{
								"patchline" : 								{
									"destination" : [ "obj-20", 0 ],
									"midpoints" : [ 202.5, 243.0, 39.5, 243.0 ],
									"order" : 1,
									"source" : [ "obj-28", 0 ]
								}

							}
, 							{
								"patchline" : 								{
									"destination" : [ "obj-24", 0 ],
									"midpoints" : [ 202.5, 330.0, 96.0, 330.0, 96.0, 375.0, 39.5, 375.0 ],
									"order" : 0,
									"source" : [ "obj-28", 0 ]
								}

							}
, 							{
								"patchline" : 								{
									"destination" : [ "obj-7", 0 ],
									"source" : [ "obj-5", 0 ]
								}

							}
, 							{
								"patchline" : 								{
									"destination" : [ "obj-8", 0 ],
									"source" : [ "obj-7", 0 ]
								}

							}
, 							{
								"patchline" : 								{
									"destination" : [ "obj-1", 1 ],
									"midpoints" : [ 345.5, 329.38671875, 75.5, 329.38671875 ],
									"source" : [ "obj-8", 0 ]
								}

							}
, 							{
								"patchline" : 								{
									"destination" : [ "obj-2", 1 ],
									"midpoints" : [ 387.0, 330.484375, 198.5, 330.484375 ],
									"source" : [ "obj-8", 1 ]
								}

							}
 ]
					}
,
					"patching_rect" : [ 388.0, 105.0, 51.0, 22.0 ],
					"saved_object_attributes" : 					{
						"description" : "",
						"digest" : "",
						"globalpatchername" : "",
						"tags" : ""
					}
,
					"text" : "p usage"
				}

			}
, 			{
				"box" : 				{
					"id" : "obj-4",
					"maxclass" : "newobj",
					"numinlets" : 0,
					"numoutlets" : 0,
					"patcher" : 					{
						"fileversion" : 1,
						"appversion" : 						{
							"major" : 8,
							"minor" : 6,
							"revision" : 5,
							"architecture" : "x64",
							"modernui" : 1
						}
,
						"classnamespace" : "box",
						"rect" : [ 0.0, 26.0, 687.0, 597.0 ],
						"bglocked" : 0,
						"openinpresentation" : 0,
						"default_fontsize" : 12.0,
						"default_fontface" : 0,
						"default_fontname" : "Arial",
						"gridonopen" : 1,
						"gridsize" : [ 15.0, 15.0 ],
						"gridsnaponopen" : 1,
						"objectsnaponopen" : 1,
						"statusbarvisible" : 2,
						"toolbarvisible" : 1,
						"lefttoolbarpinned" : 0,
						"toptoolbarpinned" : 0,
						"righttoolbarpinned" : 0,
						"bottomtoolbarpinned" : 0,
						"toolbars_unpinned_last_save" : 0,
						"tallnewobj" : 0,
						"boxanimatetime" : 200,
						"enablehscroll" : 1,
						"enablevscroll" : 1,
						"devicewidth" : 0.0,
						"description" : "",
						"digest" : "",
						"tags" : "",
						"style" : "",
						"subpatcher_template" : "",
						"showontab" : 1,
						"assistshowspatchername" : 0,
						"boxes" : [ 							{
								"box" : 								{
									"bubble" : 1,
									"bubbleside" : 0,
									"id" : "obj-5",
									"linecount" : 2,
									"maxclass" : "comment",
									"numinlets" : 1,
									"numoutlets" : 0,
									"patching_rect" : [ 91.0, 490.0, 184.0, 52.0 ],
									"text" : "@chans fixes the number of output channels",
									"textjustification" : 1
								}

							}
, 							{
								"box" : 								{
									"fontsize" : 12.0,
									"id" : "obj-13",
									"maxclass" : "comment",
									"numinlets" : 1,
									"numoutlets" : 0,
									"patching_rect" : [ 14.0, 81.0, 528.0, 20.0 ],
									"text" : "ACIDS - IRCAM : Antoine Caillon, Axel Chemla--Romeu Santos, Nils Demerlé, Philippe Esling"
								}

							}
, 							{
								"box" : 								{
									"bubble" : 1,
									"bubbleside" : 2,
									"id" : "obj-6",
									"linecount" : 3,
									"maxclass" : "comment",
									"numinlets" : 1,
									"numoutlets" : 0,
									"patching_rect" : [ 301.0, 328.0, 184.0, 66.0 ],
									"text" : "Each channel corresponds to a different latent. The number of channels depends on the model.",
									"textjustification" : 1
								}

							}
, 							{
								"box" : 								{
									"id" : "obj-4",
									"maxclass" : "scope~",
									"numinlets" : 2,
									"numoutlets" : 0,
									"patching_rect" : [ 452.5, 443.0, 126.0, 87.0 ]
								}

							}
, 							{
								"box" : 								{
									"id" : "obj-2",
									"maxclass" : "scope~",
									"numinlets" : 2,
									"numoutlets" : 0,
									"patching_rect" : [ 313.5, 443.0, 126.0, 87.0 ]
								}

							}
, 							{
								"box" : 								{
									"id" : "obj-1",
									"maxclass" : "newobj",
									"numinlets" : 1,
									"numoutlets" : 8,
									"outlettype" : [ "signal", "signal", "signal", "signal", "signal", "signal", "signal", "signal" ],
									"patching_rect" : [ 347.0, 400.0, 92.5, 22.0 ],
									"text" : "mc.unpack~ 8"
								}

							}
, 							{
								"box" : 								{
									"fontsize" : 18.0,
									"id" : "obj-37",
									"maxclass" : "comment",
									"numinlets" : 1,
									"numoutlets" : 0,
									"patching_rect" : [ 213.0, 14.0, 455.0, 27.0 ],
									"text" : "Multichannel audio generation"
								}

							}
, 							{
								"box" : 								{
									"fontsize" : 48.0,
									"id" : "obj-40",
									"maxclass" : "newobj",
									"numinlets" : 1,
									"numoutlets" : 0,
									"patching_rect" : [ 14.0, 14.0, 191.0, 62.0 ],
									"text" : "mcs.nn~"
								}

							}
, 							{
								"box" : 								{
									"id" : "obj-3",
									"linecount" : 2,
									"maxclass" : "comment",
									"numinlets" : 1,
									"numoutlets" : 0,
									"patching_rect" : [ 214.0, 40.0, 453.0, 33.0 ],
									"text" : "This variant allows to group the inputs/outputs of the objects inside a single connection per input (eg. here all encoded latents of one input)"
								}

							}
, 							{
								"box" : 								{
									"hidden" : 1,
									"id" : "obj-27",
									"maxclass" : "newobj",
									"numinlets" : 1,
									"numoutlets" : 1,
									"outlettype" : [ "" ],
									"patching_rect" : [ 311.0, 261.0, 70.0, 22.0 ],
									"text" : "loadmess 0"
								}

							}
, 							{
								"box" : 								{
									"attr" : "enable",
									"hidden" : 1,
									"id" : "obj-28",
									"maxclass" : "attrui",
									"numinlets" : 1,
									"numoutlets" : 1,
									"outlettype" : [ "" ],
									"parameter_enable" : 0,
									"patching_rect" : [ 188.0, 292.0, 128.0, 22.0 ]
								}

							}
, 							{
								"box" : 								{
									"fontface" : 1,
									"id" : "obj-26",
									"maxclass" : "comment",
									"numinlets" : 1,
									"numoutlets" : 0,
									"patching_rect" : [ 30.0, 108.0, 141.0, 20.0 ],
									"text" : "Wraps inputs/output"
								}

							}
, 							{
								"box" : 								{
									"id" : "obj-25",
									"maxclass" : "mc.ezdac~",
									"numinlets" : 1,
									"numoutlets" : 0,
									"patching_rect" : [ 29.0, 535.0, 45.0, 45.0 ]
								}

							}
, 							{
								"box" : 								{
									"id" : "obj-24",
									"maxclass" : "newobj",
									"numinlets" : 3,
									"numoutlets" : 3,
									"outlettype" : [ "multichannelsignal", "multichannelsignal", "multichannelsignal" ],
									"patching_rect" : [ 29.0, 455.0, 199.0, 22.0 ],
									"text" : "mcs.nn~ wheel decode 3 @chans 2"
								}

							}
, 							{
								"box" : 								{
									"basictuning" : 440,
									"data" : 									{
										"clips" : [ 											{
												"absolutepath" : "morph.256.rom.aif",
												"filename" : "morph.256.rom.aif",
												"filekind" : "audiofile",
												"id" : "u741009561",
												"loop" : 1,
												"content_state" : 												{
													"loop" : 1
												}

											}
 ]
									}
,
									"followglobaltempo" : 0,
									"formantcorrection" : 0,
									"id" : "obj-21",
									"maxclass" : "playlist~",
									"mode" : "basic",
									"numinlets" : 1,
									"numoutlets" : 5,
									"originallength" : [ 0.0, "ticks" ],
									"originaltempo" : 120.0,
									"outlettype" : [ "signal", "signal", "signal", "", "dictionary" ],
									"parameter_enable" : 0,
									"patching_rect" : [ 91.0, 211.0, 150.0, 30.0 ],
									"pitchcorrection" : 0,
									"quality" : "basic",
									"timestretch" : [ 0 ]
								}

							}
, 							{
								"box" : 								{
									"basictuning" : 440,
									"data" : 									{
										"clips" : [ 											{
												"absolutepath" : "eroica.aiff",
												"filename" : "eroica.aiff",
												"filekind" : "audiofile",
												"id" : "u702009436",
												"loop" : 1,
												"content_state" : 												{
													"loop" : 1
												}

											}
 ]
									}
,
									"followglobaltempo" : 0,
									"formantcorrection" : 0,
									"id" : "obj-22",
									"maxclass" : "playlist~",
									"mode" : "basic",
									"numinlets" : 1,
									"numoutlets" : 5,
									"originallength" : [ 0.0, "ticks" ],
									"originaltempo" : 120.0,
									"outlettype" : [ "signal", "signal", "signal", "", "dictionary" ],
									"parameter_enable" : 0,
									"patching_rect" : [ 152.0, 253.0, 150.0, 30.0 ],
									"pitchcorrection" : 0,
									"quality" : "basic",
									"timestretch" : [ 0 ]
								}

							}
, 							{
								"box" : 								{
									"basictuning" : 440,
									"data" : 									{
										"clips" : [ 											{
												"absolutepath" : "drumLoop.aif",
												"filename" : "drumLoop.aif",
												"filekind" : "audiofile",
												"id" : "u689009351",
												"loop" : 1,
												"content_state" : 												{
													"loop" : 1
												}

											}
 ]
									}
,
									"followglobaltempo" : 0,
									"formantcorrection" : 0,
									"id" : "obj-23",
									"maxclass" : "playlist~",
									"mode" : "basic",
									"numinlets" : 1,
									"numoutlets" : 5,
									"originallength" : [ 0.0, "ticks" ],
									"originaltempo" : 120.0,
									"outlettype" : [ "signal", "signal", "signal", "", "dictionary" ],
									"parameter_enable" : 0,
									"patching_rect" : [ 29.0, 171.0, 150.0, 30.0 ],
									"pitchcorrection" : 0,
									"quality" : "basic",
									"timestretch" : [ 0 ]
								}

							}
, 							{
								"box" : 								{
									"id" : "obj-20",
									"maxclass" : "newobj",
									"numinlets" : 3,
									"numoutlets" : 3,
									"outlettype" : [ "multichannelsignal", "multichannelsignal", "multichannelsignal" ],
									"patching_rect" : [ 29.0, 360.0, 199.0, 22.0 ],
									"text" : "mcs.nn~ wheel encode 3"
								}

							}
, 							{
								"box" : 								{
									"id" : "obj-18",
									"linecount" : 2,
									"maxclass" : "comment",
									"numinlets" : 1,
									"numoutlets" : 0,
									"patching_rect" : [ 30.0, 133.0, 321.0, 33.0 ],
									"text" : "Batches inputs among inlets, which allows to process several inputs in parallel with the same model."
								}

							}
 ],
						"lines" : [ 							{
								"patchline" : 								{
									"destination" : [ "obj-2", 0 ],
									"midpoints" : [ 356.5, 432.0, 323.0, 432.0 ],
									"source" : [ "obj-1", 0 ]
								}

							}
, 							{
								"patchline" : 								{
									"destination" : [ "obj-4", 0 ],
									"midpoints" : [ 367.0, 432.0, 462.0, 432.0 ],
									"source" : [ "obj-1", 1 ]
								}

							}
, 							{
								"patchline" : 								{
									"destination" : [ "obj-1", 0 ],
									"midpoints" : [ 218.5, 391.0, 356.5, 391.0 ],
									"order" : 0,
									"source" : [ "obj-20", 2 ]
								}

							}
, 							{
								"patchline" : 								{
									"destination" : [ "obj-24", 2 ],
									"order" : 1,
									"source" : [ "obj-20", 2 ]
								}

							}
, 							{
								"patchline" : 								{
									"destination" : [ "obj-24", 1 ],
									"source" : [ "obj-20", 1 ]
								}

							}
, 							{
								"patchline" : 								{
									"destination" : [ "obj-24", 0 ],
									"source" : [ "obj-20", 0 ]
								}

							}
, 							{
								"patchline" : 								{
									"destination" : [ "obj-20", 1 ],
									"source" : [ "obj-21", 0 ]
								}

							}
, 							{
								"patchline" : 								{
									"destination" : [ "obj-20", 2 ],
									"source" : [ "obj-22", 0 ]
								}

							}
, 							{
								"patchline" : 								{
									"destination" : [ "obj-20", 0 ],
									"source" : [ "obj-23", 0 ]
								}

							}
, 							{
								"patchline" : 								{
									"destination" : [ "obj-25", 0 ],
									"source" : [ "obj-24", 0 ]
								}

							}
, 							{
								"patchline" : 								{
									"destination" : [ "obj-28", 0 ],
									"hidden" : 1,
									"midpoints" : [ 320.5, 315.0, 197.5, 315.0 ],
									"source" : [ "obj-27", 0 ]
								}

							}
, 							{
								"patchline" : 								{
									"destination" : [ "obj-20", 0 ],
									"hidden" : 1,
									"midpoints" : [ 197.5, 349.78515625, 38.5, 349.78515625 ],
									"order" : 1,
									"source" : [ "obj-28", 0 ]
								}

							}
, 							{
								"patchline" : 								{
									"destination" : [ "obj-24", 0 ],
									"hidden" : 1,
									"midpoints" : [ 197.5, 437.4453125, 38.5, 437.4453125 ],
									"order" : 0,
									"source" : [ "obj-28", 0 ]
								}

							}
 ]
					}
,
					"patching_rect" : [ 276.0, 104.0, 64.0, 22.0 ],
					"saved_object_attributes" : 					{
						"description" : "",
						"digest" : "",
						"globalpatchername" : "",
						"tags" : ""
					}
,
					"text" : "p example"
				}

			}
 ],
		"lines" : [  ],
		"parameters" : 		{
			"obj-1::obj-10" : [ "live.dial", "live.dial", 0 ],
			"parameterbanks" : 			{
				"0" : 				{
					"index" : 0,
					"name" : "",
					"parameters" : [ "-", "-", "-", "-", "-", "-", "-", "-" ]
				}

			}
,
			"inherited_shortname" : 1
		}
,
		"dependency_cache" : [ 			{
				"name" : "drumLoop.aif",
				"bootpath" : "C74:/media/msp",
				"type" : "AIFF",
				"implicit" : 1
			}
, 			{
				"name" : "eroica.aiff",
				"bootpath" : "C74:/docs/tutorial-patchers/msp-tut",
				"type" : "AIFF",
				"implicit" : 1
			}
, 			{
				"name" : "mcs.nn~.mxo",
				"type" : "iLaX"
			}
, 			{
				"name" : "morph.256.rom.aif",
				"bootpath" : "C74:/packages/BEAP/misc",
				"type" : "AIFF",
				"implicit" : 1
			}
 ],
		"autosave" : 0
	}

}
